<?xml version="1.0" encoding="UTF-8" standalone="no"?>
<svg width="260px" height="260px" viewBox="0 0 260 260" version="1.1" xmlns="http://www.w3.org/2000/svg" xmlns:xlink="http://www.w3.org/1999/xlink" xmlns:sketch="http://www.bohemiancoding.com/sketch/ns">
    <!-- Generator: Sketch Beta 3.4 (15009) - http://www.bohemiancoding.com/sketch -->
    <title>design_icon_interface</title>
    <desc>Created with Sketch Beta.</desc>
    <defs></defs>
    <g id="Page-1" stroke="none" stroke-width="1" fill="none" fill-rule="evenodd" sketch:type="MSPage">
        <g id="v" sketch:type="MSArtboardGroup" transform="translate(-67.000000, -678.000000)">
            <g id="Group" sketch:type="MSLayerGroup" transform="translate(67.000000, 678.000000)">
                <path d="M190.8066,164.4588 L179.3136,142.6868 C176.1536,136.4608 168.5446,133.9738 162.3176,137.1338 C156.0906,140.2938 153.5456,146.8998 156.7056,153.1268 L151.4826,142.8308 C148.3226,136.6038 140.7136,134.1178 134.4866,137.2778 C128.2596,140.4378 125.7736,148.0468 128.9336,154.2738 L123.9696,144.4918 C120.8096,138.2658 113.2006,135.7788 106.9736,138.9388 C100.7466,142.0988 98.2606,149.7088 101.4206,155.9348 L73.3646,100.6418 C70.2046,94.4158 62.5946,91.9288 56.3686,95.0888 C50.1416,98.2488 47.6546,105.8588 50.8146,112.0848 C50.8146,112.0848 86.4356,182.2698 91.4426,192.1248 C80.1736,188.1568 70.2496,180.3018 63.7486,176.1278 C57.8726,172.3558 50.2516,173.0078 46.0366,178.5748 C41.8216,184.1418 42.9166,192.0718 48.4836,196.2868 C73.9236,214.3628 71.3406,238.1248 122.3026,255.7898 C134.486601,259.000004 179.313596,252.000004 190.9466,220.9178 C194.999998,200.999996 200.3956,183.3558 190.8066,164.4588 Z" id="Fill-5" fill="#FBB36D" sketch:type="MSShapeGroup"></path>
                <path d="M194.981841,222.433784 C204.96215,203.231582 205.027354,181.435036 194.864097,161.40635 L183.334037,139.562754 C178.961017,130.945377 168.342746,127.47572 159.653635,131.885162 C150.924805,136.314759 147.450826,145.939432 151.845562,154.599565 L160.763368,150.074885 L155.540368,139.778885 C151.130406,131.088748 140.512135,127.619523 131.822635,132.029162 C123.133148,136.438794 119.663923,147.057065 124.073562,155.746565 L132.991047,151.221252 L128.027047,141.439252 C123.617017,132.750377 112.998746,129.28072 104.309635,133.690162 C95.6202115,138.099762 92.1507636,148.719146 96.5607082,157.407854 L105.478149,152.882453 L77.422149,97.5894532 C73.0120493,88.9004403 62.3926648,85.4305609 53.7043463,89.8403082 C45.0151294,94.2498032 41.5448052,104.869228 45.9547082,113.557854 C46.2765812,114.192048 46.2765812,114.192048 47.7251594,117.046195 C49.6566042,120.851722 50.7028084,122.913047 52.3928445,126.242881 C57.2215203,135.756696 62.0502996,145.270512 66.5573078,154.15008 C66.5585422,154.152512 66.5585422,154.152512 66.5597765,154.154944 C77.3171069,175.348704 84.536346,189.570113 86.5836405,193.59969 L92.7019413,186.618729 C87.9709402,184.952866 83.1682927,182.438975 77.7148478,178.956187 C75.1320526,177.30671 67.283314,171.923164 66.0486997,171.130473 C57.8841842,165.889399 47.3992477,167.172027 41.6490039,174.766715 C35.7670465,182.535364 37.2956227,193.601358 45.0641146,199.483196 L45.1862419,199.572786 C52.0506977,204.450219 56.2888339,209.028515 63.7215817,218.707909 C67.816825,224.040994 68.6492128,225.107398 70.6628909,227.518415 C82.6172098,241.831559 96.4176141,251.458333 120.263735,259.724133 C122.872857,260.628536 125.721131,259.246587 126.625533,256.637465 C127.529936,254.028343 126.147987,251.180069 123.538865,250.275667 C101.423886,242.609933 89.1390678,234.04039 78.3380582,221.108125 C76.4490497,218.846378 75.6499698,217.822646 71.6529431,212.617465 C63.659069,202.207337 58.8548768,197.017553 50.9783581,191.421014 L51.1004854,191.510604 C47.7354159,188.962774 47.0732214,184.168875 49.6215961,180.803085 C52.0674784,177.572664 56.6916822,177.006983 60.6462632,179.54556 C61.7062115,180.226105 69.5682782,185.618793 72.3324444,187.384101 C78.377793,191.244902 83.8171332,194.092062 89.3806587,196.051071 C93.6353737,197.549226 97.5421496,193.091608 95.4989595,189.07011 C93.4525817,185.042339 86.2331551,170.82056 75.4768821,149.628883 C75.4756477,149.626451 75.4756477,149.626451 75.4744134,149.624019 C70.9674414,140.744522 66.1386932,131.230768 61.3100473,121.717012 C59.6200209,118.387197 58.5738224,116.325882 56.64239,112.520381 C55.1938231,109.666256 55.1938231,109.666256 54.8719257,109.032013 C52.9618717,105.268723 54.465319,100.668074 58.2299647,98.7576384 C61.9934129,96.8475041 66.5942855,98.3508373 68.5047082,102.114854 L96.560451,157.407347 C99.5770466,163.352479 108.495163,158.826735 105.477892,152.881946 C103.567681,149.118348 105.070694,144.517883 108.834965,142.607638 C112.599061,140.697482 117.19918,142.20063 119.109708,145.964854 L124.073553,155.746548 C127.090417,161.691544 136.007925,157.16622 132.991038,151.221235 C131.080659,147.4567 132.583487,142.856989 136.347965,140.946638 C140.1125,139.036259 144.712211,140.539087 146.622562,144.303565 L151.845232,154.598915 C154.861253,160.544339 163.779925,156.01922 160.763038,150.074235 C158.931621,146.465299 160.257187,142.792813 164.178965,140.802638 C167.943061,138.892482 172.54318,140.39563 174.453708,144.159854 L185.983563,166.003046 C194.654161,183.091593 194.599133,201.48646 186.108759,217.822016 C184.835254,220.27225 185.789182,223.290937 188.239416,224.564441 C190.68965,225.837946 193.708337,224.884018 194.981841,222.433784 L194.981841,222.433784 Z" id="Shape" fill="#404343" sketch:type="MSShapeGroup"></path>
                <path d="M145.9604,20.3044 L134.5344,28.9824 C133.7704,29.5624 133.4664,30.5684 133.7824,31.4744 L138.5044,45.0234 C139.2104,47.0494 136.9124,48.7954 135.1504,47.5714 L123.3664,39.3854 C122.5784,38.8384 121.5274,38.8604 120.7634,39.4404 L109.3364,48.1184 C107.6284,49.4164 105.2574,47.7694 105.8774,45.7154 L110.0204,31.9794 C110.2974,31.0604 109.9514,30.0684 109.1634,29.5204 L97.3794,21.3354 C95.6174,20.1114 96.4514,17.3484 98.5964,17.3024 L112.9414,16.9984 C113.9004,16.9774 114.7374,16.3424 115.0144,15.4234 L119.1574,1.6864 C119.7774,-0.3676 122.6624,-0.4286 123.3684,1.5974 L128.0914,15.1464 C128.4064,16.0524 129.2704,16.6514 130.2294,16.6314 L144.5744,16.3264 C146.7184,16.2814 147.6684,19.0074 145.9604,20.3044" id="Fill-9" fill="#F16352" sketch:type="MSShapeGroup"></path>
                <path d="M175.7542,19.8886 L187.3532,23.0196 C188.1292,23.2296 188.9512,22.9156 189.3902,22.2426 L195.9522,12.1786 C196.9332,10.6736 199.2672,11.3036 199.3572,13.0976 L199.9642,25.0976 C200.0042,25.8996 200.5572,26.5846 201.3322,26.7936 L212.9312,29.9256 C214.6662,30.3936 214.7882,32.8076 213.1092,33.4476 L201.8852,37.7326 C201.1342,38.0186 200.6542,38.7556 200.6942,39.5586 L201.3012,51.5576 C201.3912,53.3516 199.1332,54.2136 198.0052,52.8156 L190.4622,43.4636 C189.9582,42.8386 189.1082,42.6096 188.3572,42.8956 L177.1332,47.1806 C175.4552,47.8206 173.9372,45.9396 174.9182,44.4356 L181.4812,34.3716 C181.9202,33.6986 181.8752,32.8196 181.3712,32.1946 L173.8272,22.8426 C172.7002,21.4446 174.0202,19.4206 175.7542,19.8886" id="Fill-11" fill="#F16352" sketch:type="MSShapeGroup"></path>
                <path d="M28.1866,10.6435 L40.8586,26.3115 C41.7056,27.3595 43.1316,27.7425 44.3896,27.2605 L63.2066,20.0505 C66.0206,18.9725 68.5696,22.1245 66.9266,24.6505 L55.9406,41.5435 C55.2066,42.6735 55.2826,44.1475 56.1296,45.1955 L68.8016,60.8635 C70.6966,63.2065 68.4866,66.6045 65.5766,65.8235 L46.1156,60.5955 C44.8146,60.2455 43.4356,60.7735 42.7016,61.9035 L31.7156,78.7965 C30.0726,81.3225 26.1576,80.2705 26.0016,77.2625 L24.9596,57.1375 C24.8906,55.7925 23.9626,54.6445 22.6606,54.2945 L3.1996,49.0675 C0.2896,48.2855 0.0806,44.2375 2.8936,43.1595 L21.7106,35.9495 C22.9696,35.4675 23.7736,34.2295 23.7046,32.8845 L22.6626,12.7605 C22.5066,9.7515 26.2916,8.3005 28.1866,10.6435" id="Fill-13" fill="#F16352" sketch:type="MSShapeGroup"></path>
            </g>
        </g>
    </g>
</svg>