<?xml version="1.0" encoding="UTF-8" standalone="no"?>
<svg width="260px" height="260px" viewBox="0 0 260 260" version="1.1" xmlns="http://www.w3.org/2000/svg" xmlns:xlink="http://www.w3.org/1999/xlink" xmlns:sketch="http://www.bohemiancoding.com/sketch/ns">
    <!-- Generator: Sketch Beta 3.4 (15009) - http://www.bohemiancoding.com/sketch -->
    <title>design_icon_identity</title>
    <desc>Created with Sketch Beta.</desc>
    <defs></defs>
    <g id="Page-1" stroke="none" stroke-width="1" fill="none" fill-rule="evenodd" sketch:type="MSPage">
        <g id="v" sketch:type="MSArtboardGroup" transform="translate(-67.000000, -83.000000)">
            <g id="Fill-1-+-Shape-+-Fill-29" sketch:type="MSLayerGroup" transform="translate(80.000000, 116.000000)">
                <path d="M23.6726,99.0977 C23.6726,151.2367 65.9396,193.5037 118.0786,193.5037 C170.2176,193.5037 212.4846,151.2367 212.4846,99.0977 C212.4846,99.0977 165.1316,154.3197 118.0786,154.3197 C71.0256,154.3197 23.6726,99.0977 23.6726,99.0977 Z M23.6726,99.0267 C23.6726,46.8877 65.9396,4.6207 118.0786,4.6207 C170.2176,4.6207 212.4846,46.8877 212.4846,99.0267 C212.4846,99.0267 165.1316,43.8047 118.0786,43.8047 C71.0256,43.8047 23.6726,99.0267 23.6726,99.0267 Z" id="Fill-1" fill="#FBB36D" sketch:type="MSShapeGroup"></path>
                <path d="M43.9182242,71.8943109 C36.9501608,77.9103738 30.2640099,84.5266409 23.8840154,91.5861929 C22.1112817,89.439858 20.391399,87.2850986 18.7266037,85.1304484 C16.3064512,81.9981822 14.1806792,79.0934758 12.368476,76.492922 C11.738242,75.5885215 11.1933908,74.7886461 10.7362921,74.1028606 C10.4681241,73.700528 10.2923583,73.4312954 10.2113509,73.304722 C8.72278994,70.9788571 5.63058684,70.3000882 3.30472197,71.7886491 C0.978857094,73.2772101 0.300088155,76.3694132 1.78864911,78.695278 C1.9026427,78.8733921 2.11226931,79.1944916 2.41527587,79.6490925 C2.91013473,80.3915297 3.49380414,81.2483926 4.16404443,82.210203 C6.06748208,84.9416804 8.28985184,87.9783803 10.8134664,91.2445516 C18.0164335,100.566944 26.207026,109.887447 35.2509991,118.600748 C61.3934375,143.787347 89.2910789,159 118,159 C146.284118,159 173.898109,143.782442 199.885131,118.589991 C208.871699,109.878194 217.024794,100.559575 224.20625,91.2392496 C226.722189,87.9739823 228.93939,84.9382081 230.839671,82.2076727 C231.50873,81.2462932 232.091537,80.3898633 232.585789,79.6478611 C232.888328,79.1936697 233.097621,78.8729808 233.211351,78.695278 C234.699912,76.3694132 234.021143,73.2772101 231.695278,71.7886491 C229.369413,70.3000882 226.27721,70.9788571 224.788649,73.304722 C224.707378,73.4317067 224.5314,73.7013498 224.263132,74.104092 C223.806036,74.7903125 223.261421,75.5906209 222.631715,76.4954523 C220.821238,79.0969481 218.699087,82.0025802 216.28493,85.1357504 C214.919729,86.9075526 213.517892,88.6794215 212.080691,90.4466137 C205.825136,83.6053964 199.269289,77.1780637 192.454606,71.3253165 C193.207354,70.1737092 194.020609,68.9128046 194.887912,67.5486971 C198.542555,61.8006217 202.418037,55.3886129 206.347757,48.469212 C207.711465,46.068012 206.870412,43.0159509 204.469212,41.6522428 C202.068012,40.2885347 199.015951,41.1295881 197.652243,43.530788 C193.808541,50.2987299 190.01829,56.569723 186.449155,62.1833109 C185.82113,63.1710772 185.223003,64.1020377 184.657451,64.973641 C181.837839,62.8005001 178.978801,60.7302884 176.083042,58.7734927 C170.762253,55.1779946 165.413604,52.0329817 160.044293,49.371702 C160.435344,48.38196 160.849402,47.3212023 161.282533,46.1967106 C163.268916,41.0396758 165.25511,35.5902196 167.111174,30.0872106 C168.470679,26.0564382 169.709552,22.1438652 170.800521,18.3982127 C171.572732,15.7469582 170.049467,12.9716906 167.398213,12.1994791 C164.746958,11.4272675 161.971691,12.9505328 161.199479,15.6017873 C160.149894,19.2053568 158.952656,22.9864396 157.635624,26.8912816 C155.828326,32.2497059 153.889489,37.5692324 151.950841,42.6023355 C151.583132,43.5569809 151.229808,44.4637846 150.893487,45.3178625 C141.658478,41.716492 132.374806,39.5902727 123.078675,39.1063943 L123.0778,5.72796894 C123.077728,2.96654519 120.839093,0.728027618 118.077669,0.728100002 C115.316245,0.728172385 113.077728,2.96680731 113.0778,5.72823106 L113.078678,39.2139464 C104.04771,39.8650273 95.065551,41.9917466 86.1592159,45.4516224 C85.8071625,44.5586392 85.4361267,43.6069795 85.0491586,42.6023355 C83.1105111,37.5692324 81.1716738,32.2497059 79.3643756,26.8912816 C78.0473441,22.9864396 76.8501063,19.2053568 75.8005209,15.6017873 C75.0283094,12.9505328 72.2530418,11.4272675 69.6017873,12.1994791 C66.9505328,12.9716906 65.4272675,15.7469582 66.1994791,18.3982127 C67.2904479,22.1438652 68.5293206,26.0564382 69.8888261,30.0872106 C71.7448901,35.5902196 73.7310836,41.0396758 75.717467,46.1967106 C76.1674691,47.3650031 76.5968831,48.4644997 77.0012979,49.4870344 C71.6533966,52.1212286 66.3365675,55.2242412 61.0567697,58.764643 C57.889063,60.8887688 54.7694713,63.1457009 51.6998959,65.523135 C51.0307424,64.4965153 50.3127983,63.3817217 49.5508453,62.1833109 C45.9817101,56.569723 42.1914591,50.2987299 38.3477572,43.530788 C36.9840491,41.1295881 33.931988,40.2885347 31.530788,41.6522428 C29.1295881,43.0159509 28.2885347,46.068012 29.6522428,48.469212 C33.5819627,55.3886129 37.4574449,61.8006217 41.1120877,67.5486971 C42.1245451,69.1411049 43.0633484,70.5928744 43.9182242,71.8943109 Z M205.563027,98.1428616 C201.568853,102.671229 197.348637,107.121319 192.924682,111.410009 C168.624126,134.967558 143.160664,149 118,149 C92.3891393,149 66.6468274,134.962653 42.1891879,111.399252 C38.0974878,107.457156 34.1822588,103.378729 30.4604221,99.2285381 C41.6369008,86.7370101 53.7701558,75.6908519 66.6261172,67.0702055 C84.0313284,55.3990309 101.592966,49 119,49 C135.937162,49 153.224268,55.3958833 170.484071,67.0591147 C182.88808,75.4410657 194.689553,86.1290583 205.563027,98.1428616 Z" id="Shape" fill="#404343" sketch:type="MSShapeGroup"></path>
                <path d="M151.5441,98.9857 C151.5441,117.4687 136.5601,132.4527 118.0771,132.4527 C99.5941,132.4527 84.6101,117.4687 84.6101,98.9857 C84.6101,80.5027 99.5941,65.5187 118.0771,65.5187 C136.5601,65.5187 151.5441,80.5027 151.5441,98.9857 Z M138.9193,94.0216 C136.9243,85.9806 130.3973,79.7276 122.2053,78.1326 C120.0713,77.7166 118.0773,79.3226 118.0773,81.4966 L118.0773,95.0846 C118.0773,97.3656 119.9253,99.2096 122.2063,99.2096 L134.9223,99.2096 C137.6323,99.2106 139.5723,96.6516 138.9193,94.0216 Z" id="Fill-29" fill="#F16352" sketch:type="MSShapeGroup"></path>
            </g>
        </g>
    </g>
</svg>