<svg width="416" height="417" viewBox="0 0 416 417" xmlns="http://www.w3.org/2000/svg"><title>cassidy_clawson_avatar</title><g transform="translate(0 .48)" fill="none" fill-rule="evenodd"><path d="M123.5 298.718l52.5 52.627c2.9 2.907 7.6 2.907 10.5 0l25.6-25.662-57.6-57.74c-2.9-2.906-7.5-2.906-10.4 0l-20.5 20.35c-3 2.707-3 7.518-.1 10.425z" fill="#FFF"/><path d="M156.7 210.205l.5 58.04 86.2 88.713-3.8-94.728c.2-3.91 3.1-7.217 7-7.818 22.3-3.208 35.9-21.252 38-46.212l6.4-63.753c4.7-47.514-32.2-83.3-77-83.3s-86.2 36.488-86.2 81.396c-.1 0-1.3 34.082 28.9 67.662z" fill="#FBB36D"/><path d="M210.737 210.807c8.21 8.14 29.663 32.88 51.263-.602-7.3 3.108-17.3.602-23.4.602-5.9 0-4.1-2.005-10.2.6-6.1 2.607-11.3-.3-18.8-1.202l1.137.602z" fill-opacity=".5" fill="#F16352"/><path d="M238 189.054c-4 0-8.5-1.102-13.3-3.207-1.5-.702-2.2-2.406-1.5-4.01.7-1.504 2.4-2.205 4-1.504 9.6 4.31 15.5 2.807 17.8.1 2-2.405 1.8-6.214-.5-9.622-4.5-6.615-6.8-12.028-9.1-17.14-2.7-6.015-5.2-11.83-11-19.548-1-1.303-.7-3.207.6-4.21 1.3-1.002 3.2-.7 4.2.602 6.3 8.32 9 14.635 11.7 20.75 2.3 5.112 4.4 10.024 8.6 16.24 3.9 5.712 3.9 12.328.2 16.94-2.9 3.007-6.9 4.61-11.7 4.61zM227.158 213.474c-5.474 0-12.31 2.864-16.658-2.367-2.5-3.007.5-4.01 1.9-3.007 5.8 4.31 12.02 0 17.495 0 2.737 0 5.11.2 8.21 2.707 0 0 2.737-2.807 8.21-2.707 3-.1 3.385.702 5.285 1.504 3.1 1.403 4.1 1.804 7.7-.702 2.5-1.804 3.4.702 2.4 1.905-5 6.215-9.6 5.212-11.9 4.11-2.8-1.404-6.22 1.294-11.695 1.294-5.473 0-5.473-2.736-10.947-2.736zM239.3 230.354c-5.7 0-11.2-3.308-13.4-5.213-1.3-1.1-2-2.605-1.4-3.507.7-1.103 2.1-1.203 3.5-.3 5.3 3.307 13.7 6.114 21.8-.402 1.3-1.102 2.6-.8 3.2.1.4.703.1 1.705-1.1 3.01-3.3 3.307-6.2 6.314-12.6 6.314zM180.6 128.51c-.8 0-1.6-.302-2.2-.903-1.1-1.203-1.1-3.108.1-4.21 5.6-5.413 20.2-13.132 35.1-4.31 1.4.8 1.9 2.706 1.1 4.11-.8 1.403-2.5 1.603-4.1 1.102-13.6-4.813-27.8 3.407-27.9 3.507-.6.4-1.4.702-2.1.702zM242.3 124.6c-1 0-2-.502-2.6-1.504-.8-1.403-.4-3.308 1.1-4.11 18.6-11.026 30.8-.1 31.3.4 1.2 1.104 1.3 3.008.2 4.21-1.1 1.204-3 1.304-4.2.202-.4-.4-11.9-5.614-24.2.4-.5.2-1 .402-1.6.402z" fill="#404343"/><ellipse fill="#404343" cx="199.3" cy="139.936" rx="6.1" ry="6.115"/><ellipse fill="#404343" cx="255.5" cy="139.936" rx="6.1" ry="6.115"/><g fill="#404343"><path d="M209.093 202.696c1.16.376 2.8-1.283 3.665-3.706.864-2.423.624-4.692-.536-5.068-1.16-.376-2.8 1.283-3.664 3.706-.864 2.423-.625 4.692.535 5.068zM223.53 198.984c-.95 2.72-2.745 4.533-4.012 4.13-1.268-.403-1.48-2.92-.53-5.64.213-.504.74-2.116 1.058-2.62.95-1.813 2.323-2.92 3.38-2.618.95.302 1.267 1.813 1.056 3.626-.106.705-.634 2.417-.95 3.122zM233.883 198.783c-.74 2.72-2.324 4.734-3.486 4.532-1.162-.302-1.584-2.72-.845-5.54.106-.604.634-2.618.845-3.02.845-1.915 2.007-2.72 2.958-2.52.95.202 1.373 1.21 1.267 3.123-.21.604-.634 2.72-.74 3.425zM259.145 198.695c.422 2.216 1.69 3.828 2.85 3.727 1.163-.1 1.69-2.015 1.27-4.23-.424-2.216-1.69-3.828-2.853-3.727-1.162.1-1.69 2.014-1.267 4.23zM253.664 202.13c1.267-.1 2.007-1.914 1.796-4.13-.106-.403-.317-1.713-.423-2.115-.528-1.51-1.48-2.52-2.535-2.418-.95.1-1.584 1.108-1.796 2.62 0 .402.106 1.71.106 2.316.317 2.115 1.584 3.827 2.852 3.726zM241.5 197.822c.423 2.317 1.69 4.03 2.958 3.93 1.267-.203 1.9-2.217 1.478-4.534-.105-.504-.316-1.813-.528-2.216-.633-1.612-1.584-2.72-2.64-2.518-.95.1-1.48 1.31-1.585 2.82.106.504.317 1.914.317 2.518z"/></g><path d="M84 355.053c-.4 1.404-1.9 3.208-1.6 4.01.2.602.9.902 1.5.702l6.5-2.005 6.2 12.23c.3.5.9.8 1.4.6.5-.2.9-.8.8-1.302l-2.7-13.232 13.3-4.41c.5-.2.8-.602.8-1.204 0-.2-.3-4.11-3.2-6.215-1.7-1.202-3.8-1.603-6.4-1.002-.9-.6-3.1-1.905-5.6-2.205-.8-.1-1.6-.1-2.5.1-.2 0-.4.1-.6.2-.3-.7-.7-1.904-1.4-3.708L77.9 348.84l6.1 6.213zm5.2-4.01c.2-1.603 1.6-2.706 3.1-2.505 1.6.2 2.7 1.604 2.5 3.107-.2 1.604-1.6 2.707-3.1 2.506-1.5-.1-2.7-1.502-2.5-3.106zm37.2-21.65c-.1.6.2 1.1.8 1.302.5.2 1.2-.1 1.4-.602l6.2-12.23 1.2.402-11.1-11.127-6.3 5.614 10.4 3.408-2.6 13.232zm26.5 30.272c1-1.304 3.3-2.506 3.3-3.51 0-.7-.5-1.302-1.2-1.302l-7.5-.702-1.3-15.035c-.1-.6-.6-1.102-1.2-1.203-.6 0-1.2.4-1.3 1.003l-2.8 14.635-15.4-1.103c-.6 0-1.1.3-1.3.902-.1.2-1.4 4.31.7 7.718 1.2 1.905 3.2 3.208 6.1 3.71.7 1 2.4 3.207 4.9 4.51.8.4 1.6.7 2.5.902.2 0 .5.1.7.1 0 1.403-.1 4.01 0 8.82 0 .503.3.903.7 1.104.1.1.3.1.4.1 11.1 1.504 16.9-8.42 17.1-8.82.2-.302.2-.803.1-1.104l-4.5-10.725zm-6.9 1.904c-.8 1.503-2.7 2.104-4.2 1.302s-2.1-2.706-1.3-4.21c.8-1.503 2.7-2.105 4.2-1.303 1.5.8 2.1 2.706 1.3 4.21zm124.5-27.166l1.7 10.826c-1.2.902-3.5 1.503-3.8 2.406-.2.6.2 1.303.8 1.503l6.7 2.305-2.2 14.034c-.1.6.3 1.2.8 1.302.6.2 1.2-.1 1.4-.702l5.8-12.73 13.8 4.41c.4.1.7 0 1-.2l-25.9-24.058c-.1.4-.2.7-.1.902zm-43.7 36.89l-14.5-7.52 5.5-14.735c.2-.602 0-1.304-.6-1.705-.6-.3-1.3-.2-1.7.4l-9.4 12.932-7.2-3.508c-.7-.302-1.5-.102-1.8.5-.5.902.9 3.207 1.1 5.012l-10 7.317c-.3.2-.5.6-.6 1.002 0 .5-.3 12.63 10.6 17.442.2.1.3.1.5.1.5 0 1-.2 1.2-.6 2.7-4.312 4.1-6.718 4.8-8.02.2.1.4.2.7.3.9.3 1.9.5 2.8.6 3 .202 5.7-.9 6.9-1.402 2.8 1.103 5.4 1.103 7.5 0 3.7-1.905 4.8-6.415 4.8-6.616.2-.6 0-1.203-.6-1.503zm-20.3.4c-1.8-.1-3.2-1.705-3.1-3.51.1-1.803 1.7-3.207 3.5-3.106 1.8.1 3.2 1.704 3.1 3.508-.1 1.804-1.7 3.208-3.5 3.107zm-56.3-88.413c-1.5-.2-3.5-1.402-4.3-1-.6.3-.8 1-.5 1.602l3 6.215-11.2 8.22c-.5.3-.6 1.003-.3 1.504.3.502.9.803 1.5.502l12.8-4.812 6.5 12.63c.2.502.8.702 1.3.602.2 0 4.1-1.002 5.7-4.21 1-1.905 1-4.11 0-6.616.5-1.002 1.4-3.408 1.3-6.014 0-.802-.2-1.604-.5-2.406l-.3-.602c.3-.2 1.1-.7 2-1.303l-11.5-11.526c-2.5 3.408-5.5 7.117-5.5 7.217zm4.9 4.512c1.6-.1 2.9 1.102 3 2.706.1 1.604-1.1 2.907-2.7 3.008-1.6.1-2.9-1.103-3-2.707-.1-1.605 1.1-2.908 2.7-3.008zm23.1 50.12c1.5.2 3.5 1.504 4.4 1.003.6-.3.8-1.003.5-1.604l-3-6.314 11.5-8.22c.5-.3.6-1.003.4-1.504-.3-.5-.9-.802-1.5-.6l-13 4.71-6.5-12.83c-.2-.502-.8-.702-1.3-.602-.2 0-4.1.902-5.9 4.21-1 1.905-1 4.11-.1 6.616-.5 1.002-1.4 3.408-1.3 6.115 0 .602.1 1.304.3 2.005l11.7 11.73c1.9-2.307 3.8-4.612 3.8-4.713 0 .1 0 0 0 0zm-4.9-4.61c-1.6.1-3-1.204-3-2.808-.1-1.603 1.2-3.007 2.8-3.007 1.6-.1 3 1.203 3 2.807.1 1.604-1.2 2.907-2.8 3.007zm137.5 37.59c-4.6 2.004-12.8 6.515-12.1 14.134 0 .1 13.7 1.603 15.5 1.704 2.7-1.604 5.4-3.308 8.1-5.113l-11.5-10.725zm-49.1-37.49c.1 0-.7-5.013-1.4-9.323l-12.8-11.93c-.3-.1-.5-.2-.7-.3l.7 16.44c3.3 3.508 8.6 7.217 14.2 5.11zm21 65.256l-7.2-10.124c.8-1.604 2.8-3.308 2.6-4.41-.1-.702-.8-1.204-1.6-1.103l-8 1.103-4.9-15.336c-.2-.602-.9-1.003-1.5-.903-.7.1-1.2.702-1.1 1.404l.6 15.838-16.2 2.606c-.6.1-1.1.6-1.1 1.203 0 .2-.4 4.812 2.5 7.82 1.7 1.703 4.1 2.505 7.2 2.405 1 .902 3.2 2.806 6.1 3.608.9.2 1.9.4 2.9.4.3 0 .5 0 .7-.1.2 1.003.5 2.607 1.1 5.113h.2c6.5-1.903 12.8-4.008 19-6.514-.3-.502-.7-1.103-1.1-1.805-.3-.3 0-.8-.2-1.202zm-14-6.515c-.5 1.804-2.3 2.806-4.1 2.305-1.8-.5-2.8-2.305-2.3-4.11.5-1.804 2.3-2.806 4.1-2.305 1.8.5 2.8 2.406 2.3 4.11zm-90.3 8.82c-.3-.4-8.7-9.723-20.3-5.613-.2.1-.3.1-.4.2-.4.302-.6.803-.5 1.304 1 5.112 1.7 7.92 2 9.423-.2.1-.5.2-.7.3-.9.4-1.8.903-2.5 1.604-.2.202-.7.603-1.4 1.104 7.1 1.904 14.4 3.408 21.9 4.51l2.2-11.627c.1-.4-.1-.802-.3-1.203zm-62.2-19.045c-.6-.3-1.3-.2-1.6.4l-6.3 8.622c1.6.902 3.2 1.704 4.8 2.506l3.8-9.924c.1-.602-.1-1.303-.7-1.604zm125.3 30.574l-11-3.81c-.3-1.603.3-4.11-.4-4.81-.5-.502-1.3-.502-1.8 0l-5.5 5.11-12.1-9.02c-.5-.402-1.2-.3-1.7.1-.4.5-.5 1.203-.1 1.704l9.1 11.728-2.5 2.406c9.1-.3 18-1.303 26.7-2.707-.1-.3-.3-.6-.7-.7z" fill="#4DDBC4"/><path d="M296.9 357.36c.1-.1-25.8-24.26-26.1-23.96-.1.102-.1.202-.2.202l25.9 24.058c.2 0 .3-.1.4-.3zM172.8 283.782c0-.1-10.4-18.043-13.2-12.43-.1.1-1.8 2.406-3.8 4.912l11.5 11.528c2.3-1.504 5.5-3.71 5.5-4.01z" fill="#5AC3B2"/><path d="M415.2 208.1C415.2 93.124 322.2 0 207.6 0S0 93.124 0 208.1c0 56.235 22.3 107.258 58.4 144.748l59.7-53.027c-1.1-1.904-1.8-4.11-1.8-6.415 0-3.308 1.3-6.415 3.7-8.82l20.5-20.35c3.2-3.107 7.6-4.21 11.6-3.208l-.2-27.165c-1.2-5.914-5.2-7.82-10.1-7.82 0-8.118-2.1-10.925-9.5-10.925 0-33.78-26.6-40.497-26.6-83.2 0-38.09 21.6-45.81 21.6-45.81 0-34.082 33-60.546 86.3-60.546 48.7 0 68.1 22.155 68.1 22.155l-4.2 2.506c-.1 0-.1.1-.2.1-6.6 4.01-6.6 13.734 0 17.744 8.9 5.513 18.8 15.236 18.8 30.974 0 6.315-1.4 11.93-2.6 15.537 2.7 9.624 3.6 19.848 2.6 30.373l-6.4 63.754c-2.4 28.268-18.2 47.213-42.3 50.722-1.5.2-2.6 1.403-2.7 2.907l1.4 35.085c.4.2.7.4 1.1.702l83.5 77.486c51.2-37.79 84.5-98.737 84.5-167.503z" fill="#4DDBC4"/><path d="M246.1 297.515l-1.4-35.084c.2-1.503 1.3-2.706 2.7-2.906 24.1-3.51 39.9-22.454 42.3-50.722l6.4-63.753c1-10.527.1-20.75-2.6-30.374 1.2-3.61 2.6-9.223 2.6-15.538 0-15.738-10-25.46-18.8-30.974-6.6-4.11-6.6-13.733 0-17.743.1 0 .1-.1.2-.1l4.2-2.505s-19.5-22.153-68.1-22.153c-53.3 0-86.3 26.463-86.3 60.545 0 0-21.6 7.72-21.6 45.81 0 42.703 26.6 49.42 26.6 83.2 7.4 0 9.5 2.807 9.5 10.927 4.9 0 8.9 1.904 10.1 7.818l.2 27.166c-4-1.003-8.5.1-11.6 3.207l-20.5 20.25c-2.4 2.305-3.7 5.512-3.7 8.82 0 2.306.6 4.51 1.8 6.416L58.4 352.85c2.3 2.406 4.7 4.712 7.1 7.017l59.3-52.727 47.6 47.715c2.3 2.306 5.5 3.61 8.8 3.61 3.3 0 6.4-1.304 8.8-3.61l22.5-22.554 27.4 28.167c1 1.002 2.3 1.503 3.6 1.503.7 0 1.3-.1 2-.4 1.9-.803 3.1-2.707 3-4.812l-1.8-45.41 75.6 70.17c2.8-1.905 5.6-3.81 8.4-5.915-.1.1-84.2-77.887-84.6-78.088zm-63.2 50.22c-.6.602-1.3.703-1.7.703-.4 0-1.1-.1-1.7-.702L127 295.11c-.6-.602-.7-1.304-.7-1.705 0-.4.1-1.102.7-1.704l20.5-20.348c.5-.5 1.1-.7 1.7-.7.6 0 1.2.2 1.7.7l54.1 54.23-22.1 22.154zm51.8-85.705v.5l3.3 81.597-75.7-77.887-.5-56.035v-.4c4-20.15-5.4-24.16-5.4-35.386 0-12.63 7.8-15.538 7.8-31.276 0-14.836-13.9-16.64-13.9-30.273 0-11.727 11.3-26.362 27.9-26.362 18.7 0 33.8 9.723 48.9 9.723 24.2 0 33.1-6.615 37.2-10.925 1.6 1.504 3.2 3.007 4.7 4.61 13.2 14.536 19.4 33.782 17.5 54.232l-6.4 63.753c-2 23.356-14.6 38.893-33.8 41.7-6.5.902-11.3 6.115-11.6 12.43z" fill="#404343"/></g></svg>