<svg width="260" height="260" viewBox="0 0 260 260" xmlns="http://www.w3.org/2000/svg"><title>design_icon_identity</title><g fill="none" fill-rule="evenodd"><path d="M36.673 132.098c0 52.14 42.267 94.406 94.406 94.406 52.138 0 94.405-42.267 94.405-94.406 0 0-47.353 55.222-94.406 55.222-47.054 0-94.407-55.222-94.407-55.222zm0-.07c0-52.14 42.267-94.407 94.406-94.407 52.138 0 94.405 42.268 94.405 94.407 0 0-47.353-55.222-94.406-55.222-47.054 0-94.407 55.222-94.407 55.222z" fill="#FBB36D"/><path d="M56.918 104.894c-6.968 6.016-13.654 12.633-20.034 19.692-1.773-2.146-3.493-4.3-5.157-6.456-2.42-3.132-4.546-6.037-6.36-8.637-.63-.904-1.174-1.704-1.63-2.39-.27-.402-.445-.672-.526-.798-1.487-2.326-4.58-3.005-6.905-1.516-2.326 1.487-3.005 4.58-1.516 6.905.113.178.322.5.625.954.495.742 1.08 1.598 1.75 2.56 1.902 2.732 4.125 5.768 6.648 9.035 7.203 9.322 15.394 18.642 24.438 27.356C74.394 176.788 102.29 192 131 192c28.284 0 55.898-15.218 81.885-40.41 8.987-8.712 17.14-18.03 24.32-27.35 2.517-3.266 4.734-6.302 6.635-9.032.67-.962 1.252-1.818 1.746-2.56.302-.454.512-.775.625-.953 1.49-2.326.81-5.418-1.515-6.906-2.326-1.49-5.418-.81-6.906 1.515l-.527.8c-.457.685-1.002 1.486-1.63 2.39-1.812 2.602-3.934 5.508-6.348 8.64-1.365 1.773-2.767 3.544-4.204 5.312-6.255-6.842-12.81-13.27-19.625-19.122.752-1.15 1.566-2.412 2.433-3.776 3.655-5.75 7.53-12.16 11.46-19.08 1.363-2.402.522-5.454-1.88-6.818-2.4-1.363-5.452-.522-6.816 1.88-3.843 6.767-7.634 13.038-11.203 18.65-.63.99-1.227 1.92-1.793 2.792-2.82-2.173-5.678-4.244-8.574-6.2-5.32-3.596-10.67-6.74-16.04-9.402.392-.99.806-2.05 1.24-3.175 1.986-5.157 3.972-10.607 5.828-16.11 1.36-4.03 2.6-7.943 3.69-11.69.773-2.65-.75-5.425-3.402-6.198-2.65-.773-5.426.75-6.2 3.402-1.048 3.603-2.245 7.384-3.562 11.29-1.808 5.358-3.747 10.677-5.685 15.71-.367.955-.72 1.862-1.057 2.716-9.235-3.602-18.518-5.728-27.814-6.212l-.002-33.378c0-2.76-2.24-5-5-5-2.762 0-5 2.24-5 5v33.486c-9.03.65-18.012 2.778-26.92 6.238-.35-.893-.722-1.845-1.11-2.85-1.937-5.033-3.876-10.352-5.684-15.71-1.317-3.906-2.514-7.687-3.563-11.29-.772-2.65-3.547-4.175-6.198-3.403-2.65.772-4.175 3.547-3.403 6.198 1.09 3.746 2.33 7.658 3.69 11.69 1.855 5.502 3.84 10.952 5.827 16.11.45 1.167.88 2.266 1.284 3.29-5.347 2.633-10.663 5.736-15.943 9.277-3.168 2.124-6.288 4.38-9.357 6.758-.67-1.026-1.387-2.14-2.15-3.34C58.983 89.57 55.19 83.3 51.35 76.53c-1.364-2.4-4.416-3.24-6.817-1.878-2.4 1.364-3.24 4.416-1.878 6.817 3.93 6.92 7.805 13.33 11.46 19.08 1.013 1.59 1.95 3.043 2.806 4.344zm161.645 26.25c-3.994 4.527-8.214 8.977-12.638 13.266C181.625 167.968 156.16 182 131 182c-25.61 0-51.353-14.037-75.81-37.6-4.093-3.943-8.008-8.02-11.73-12.17 11.177-12.493 23.31-23.54 36.166-32.16C97.03 88.4 114.593 82 132 82c16.937 0 34.224 6.396 51.484 18.06 12.404 8.38 24.206 19.07 35.08 31.083z" fill="#404343"/><path d="M164.544 131.986c0 18.483-14.984 33.467-33.467 33.467-18.483 0-33.467-14.984-33.467-33.467 0-18.483 14.984-33.467 33.467-33.467 18.483 0 33.467 14.983 33.467 33.466zm-12.625-4.964c-1.996-8.04-8.523-14.294-16.715-15.89-2.134-.415-4.128 1.19-4.128 3.365v13.588c0 2.28 1.848 4.125 4.13 4.125h12.715c2.71 0 4.65-2.558 3.997-5.188z" fill="#F16352"/></g></svg>