<svg width="260" height="260" viewBox="0 0 260 260" xmlns="http://www.w3.org/2000/svg"><title>design_icon_experience</title><g fill="none" fill-rule="evenodd"><path d="M129.277 213.413c0 19.27-18.29 33.352-36.893 28.332C45.482 229.088 13.77 181.253 13.77 130.12c0-51.57 30.152-99.784 78.96-111.94 18.61-4.635 36.547 9.81 36.547 28.99v166.243z" fill="#FBB36D"/><path d="M129.644 196.835c2.338 0 4.26 1.727 4.657 4.03.844 4.886 3.193 9.256 6.552 12.615 4.26 4.26 10.145 6.895 16.645 6.895 13 0 23.54-10.54 23.54-23.54 15.472 0 28.015-12.543 28.015-28.015 0-3.98-.834-7.76-2.33-11.19 9.68-5.948 16.136-16.632 16.136-28.827 0-11.547-5.79-21.737-14.623-27.838.53-2.154.817-4.405.817-6.723 0-15.472-12.543-28.015-28.015-28.015 0-10.47-6.84-19.897-16.945-22.644-8.36-2.273-16.293-.054-21.92 4.775-4.09 3.513-6.962 8.406-7.89 13.958-.374 2.233-2.232 3.91-4.497 3.91h-.282c-2.265 0-4.123-1.677-4.496-3.91-.928-5.552-3.8-10.445-7.89-13.958-5.628-4.83-13.56-7.048-21.92-4.775C85.09 46.33 78.25 55.757 78.25 66.227c-15.47 0-28.014 12.543-28.014 28.015 0 2.318.287 4.57.818 6.723-8.833 6.1-14.624 16.29-14.624 27.838 0 12.195 6.457 22.88 16.136 28.828-1.495 3.43-2.33 7.21-2.33 11.19 0 15.472 12.543 28.015 28.015 28.015 0 13 10.54 23.54 23.54 23.54 6.5 0 12.386-2.635 16.646-6.895 3.36-3.36 5.708-7.73 6.55-12.614.398-2.304 2.32-4.03 4.658-4.03" fill="#F16352"/><path d="M55.15 153.35c-8.463-5.218-13.72-14.426-13.72-24.547 0-9.588 4.715-18.372 12.465-23.725 1.71-1.18 2.51-3.294 2.013-5.31-.445-1.806-.672-3.654-.672-5.526 0-11.176 7.966-20.492 18.53-22.58 1.164 6.39 4.27 11.97 8.916 15.977 2.09 1.804 5.247 1.572 7.052-.52 1.804-2.09 1.572-5.247-.52-7.05-3.723-3.215-5.927-8.176-5.962-14.03.1-10.154 8.362-18.353 18.54-18.353 4.494 0 8.728 1.6 12.067 4.465 2.094 1.8 5.25 1.558 7.05-.537 1.798-2.095 1.558-5.252-.537-7.05-5.136-4.41-11.675-6.878-18.582-6.878-15.58 0-28.242 12.483-28.534 27.992.085-1.986 1.326-3.67 3.067-4.4-17.336 1-31.087 15.375-31.087 32.962 0 2.684.326 5.336.963 7.92l4.854-1.198-2.842-4.114c-10.425 7.2-16.782 19.044-16.782 31.953 0 13.622 7.08 26.03 18.46 33.052l-.075-.05c-2.03-1.336-2.768-3.9-1.878-6.068-1.773 4.102-2.7 8.534-2.7 13.082 0 18.233 14.78 33.014 33.014 33.014l-5-5c0 15.763 12.778 28.54 28.54 28.54 2.762 0 5-2.238 5-5 0-2.76-2.238-5-5-5-10.24 0-18.54-8.3-18.54-18.54 0-2.76-2.238-5-5-5-12.71 0-23.014-10.304-23.014-23.015 0-1.31.11-2.602.325-3.87.634.3 1.285.595 1.954.883 5.807 2.505 11.748 4.02 17.583 4.02 2.76 0 5-2.24 5-5 0-2.762-2.24-5-5-5-4.287 0-8.964-1.193-13.624-3.202-1.664-.717-3.203-1.487-4.57-2.253-.47-.264-.883-.506-1.232-.72-.193-.118-.313-.195-.354-.222-.055-.036-.11-.07-.166-.105zm127.287-82.19c.264.044.534.067.81.067 12.71 0 23.015 10.304 23.015 23.015 0 1.872-.228 3.72-.673 5.526-.498 2.016.303 4.13 2.012 5.31 7.75 5.354 12.466 14.137 12.466 23.725 0 10.135-5.272 19.354-13.754 24.568-2.124 1.306-2.962 3.975-1.965 6.26 1.255 2.88 1.912 5.987 1.912 9.19 0 11.03-7.76 20.25-18.12 22.493-1.622-13.06-12.76-23.167-26.258-23.167-2.762 0-5 2.24-5 5 0 2.762 2.238 5 5 5 9.09 0 16.46 7.37 16.46 16.46 0 .308.028.608.08.9-.115.423-.177.868-.177 1.33 0 10.238-8.3 18.54-18.54 18.54-4.988 0-9.652-1.974-13.11-5.432-1.952-1.953-5.118-1.953-7.07 0-1.953 1.953-1.953 5.12 0 7.07 5.314 5.316 12.512 8.36 20.18 8.36 15.762 0 28.54-12.777 28.54-28.54l-5 5c18.233 0 33.015-14.78 33.015-33.014 0-4.588-.945-9.055-2.747-13.188l-4.583 2 2.618 4.258c11.412-7.014 18.518-19.44 18.518-33.087 0-12.91-6.358-24.752-16.783-31.952l-2.84 4.115 4.853 1.196c.637-2.58.964-5.234.964-7.918 0-18.234-14.782-33.015-33.015-33.015l.706.706c.753.437 1.382 1.066 1.82 1.82l2.474 2.474c0-15.763-12.778-28.54-28.54-28.54-2.762 0-5 2.238-5 5 0 2.76 2.238 5 5 5 8.603 0 15.837 5.86 17.93 13.805-11.762 1.44-21.74 9.473-25.64 20.717-.904 2.608.477 5.456 3.087 6.36 2.61.905 5.457-.476 6.362-3.085 2.928-8.445 10.914-14.225 20-14.225.34 0 .67-.034.99-.1zM73.252 66.02v.206-.002-.204zm96.257 63.318c4.375-2.656 9.5-4.174 14.94-4.174 2.76 0 5 2.24 5 5s-2.24 5-5 5c-9.09 0-16.836 6.495-18.493 15.317-.51 2.715-3.123 4.502-5.837 3.992-2.714-.51-4.5-3.123-3.99-5.837.893-4.76 2.94-9.075 5.824-12.67-3.194-4.276-5.03-9.343-5.348-14.618-.166-2.757 1.934-5.126 4.69-5.292 2.757-.166 5.126 1.934 5.292 4.69.186 3.076 1.183 6.03 2.92 8.593zm-56.56-41.61c2.785 9.072-2.31 18.683-11.38 21.468-2.64.81-4.124 3.607-3.313 6.247.81 2.64 3.607 4.123 6.247 3.313 14.35-4.406 22.412-19.61 18.006-33.962-.81-2.64-3.607-4.122-6.247-3.312-2.64.81-4.123 3.607-3.312 6.247zM87.21 139.624c10.385 3.95 17.392 13.932 17.392 25.23 0 5.457-1.62 10.66-4.606 15.082-1.546 2.288-.944 5.396 1.344 6.942 2.288 1.546 5.396.944 6.942-1.344 4.096-6.06 6.32-13.212 6.32-20.68 0-15.483-9.603-29.162-23.836-34.576-2.58-.982-5.47.314-6.45 2.895-.983 2.58.313 5.47 2.894 6.45z" fill="#404343"/></g></svg>