<?xml version="1.0" encoding="UTF-8" standalone="no"?>
<svg width="416px" height="417px" viewBox="0 0 416 417" version="1.1" xmlns="http://www.w3.org/2000/svg" xmlns:xlink="http://www.w3.org/1999/xlink" xmlns:sketch="http://www.bohemiancoding.com/sketch/ns">
    <!-- Generator: Sketch Beta 3.4 (15009) - http://www.bohemiancoding.com/sketch -->
    <title>cassidy_clawson_avatar</title>
    <desc>Created with Sketch Beta.</desc>
    <defs></defs>
    <g id="Page-1" stroke="none" stroke-width="1" fill="none" fill-rule="evenodd" sketch:type="MSPage">
        <g id="v" sketch:type="MSArtboardGroup" transform="translate(-523.000000, -371.000000)">
            <g id="Group-Copy-4" sketch:type="MSLayerGroup" transform="translate(523.000000, 371.481400)">
                <g id="Layer_1" sketch:type="MSShapeGroup">
                    <path d="M123.5,298.718072 L176,351.344578 C178.9,354.251566 183.6,354.251566 186.5,351.344578 L212.1,325.682892 L154.5,267.944096 C151.6,265.037108 147,265.037108 144.1,267.944096 L123.6,288.293012 C120.6,290.999518 120.6,295.811084 123.5,298.718072 L123.5,298.718072 Z" id="Shape" fill="#FFFFFF"></path>
                    <path d="M156.7,210.205301 L157.2,268.244819 L243.4,356.958072 L239.6,262.230361 C239.8,258.320964 242.7,255.013012 246.6,254.411566 C268.9,251.203855 282.5,233.160482 284.6,208.200482 L291,144.447229 C295.7,96.933012 258.8,61.146988 214,61.146988 C169.2,61.146988 127.8,97.6346988 127.8,142.542651 C127.7,142.542651 126.5,176.624578 156.7,210.205301 L156.7,210.205301 Z" id="Shape" fill="#FBB36D"></path>
                    <path d="M210.736842,210.806747 C218.947368,218.947369 240.4,243.685783 262,210.205301 C254.7,213.312771 244.7,210.806747 238.6,210.806747 C232.7,210.806747 234.5,208.801928 228.4,211.408193 C222.3,214.014458 217.1,211.10747 209.6,210.205301 L210.736842,210.806747 Z" id="Shape" fill-opacity="0.5" fill="#F16352"></path>
                    <path d="M238,189.054458 C234,189.054458 229.5,187.951807 224.7,185.846747 C223.2,185.14506 222.5,183.440964 223.2,181.837108 C223.9,180.333494 225.6,179.631807 227.2,180.333494 C236.8,184.643855 242.7,183.140241 245,180.433735 C247,178.027952 246.8,174.218795 244.5,170.810602 C240,164.194699 237.7,158.781687 235.4,153.669398 C232.7,147.65494 230.2,141.840964 224.4,134.12241 C223.4,132.819277 223.7,130.914699 225,129.912289 C226.3,128.90988 228.2,129.210602 229.2,130.513735 C235.5,138.833735 238.2,145.148916 240.9,151.263614 C243.2,156.375904 245.3,161.287711 249.5,167.502651 C253.4,173.216386 253.4,179.832289 249.7,184.443373 C246.8,187.450602 242.8,189.054458 238,189.054458 L238,189.054458 Z" id="Shape" fill="#404343"></path>
                    <path d="M227.157895,213.473684 C221.684211,213.473684 214.848007,216.337651 210.5,211.10747 C208,208.100241 211,207.097831 212.4,208.100241 C218.2,212.410602 224.421053,208.100241 229.894737,208.100241 C232.631578,208.100241 235.005262,208.300723 238.105262,210.806747 C238.105262,210.806747 240.842104,208 246.315788,208.100241 C249.315788,208 249.7,208.801928 251.6,209.603855 C254.7,211.007229 255.7,211.408193 259.3,208.902169 C261.8,207.097831 262.7,209.603855 261.7,210.806747 C256.7,217.021687 252.1,216.019277 249.8,214.916627 C247,213.513253 243.578946,216.210527 238.105262,216.210527 C232.631578,216.210527 232.631578,213.473684 227.157895,213.473684 Z" id="Shape" fill="#404343"></path>
                    <path d="M239.3,230.353735 C233.6,230.353735 228.1,227.045783 225.9,225.141205 C224.6,224.038554 223.9,222.53494 224.5,221.632771 C225.2,220.53012 226.6,220.42988 228,221.332048 C233.3,224.64 241.7,227.446747 249.8,220.931084 C251.1,219.828434 252.4,220.129157 253,221.031325 C253.4,221.733012 253.1,222.735422 251.9,224.038554 C248.6,227.346506 245.7,230.353735 239.3,230.353735 L239.3,230.353735 Z" id="Shape" fill="#404343"></path>
                    <path d="M180.6,128.508916 C179.8,128.508916 179,128.208193 178.4,127.606747 C177.3,126.403855 177.3,124.499277 178.5,123.396627 C184.1,117.983614 198.7,110.26506 213.6,119.086265 C215,119.888193 215.5,121.792771 214.7,123.196145 C213.9,124.599518 212.2,124.8 210.6,124.298795 C197,119.487229 182.8,127.706988 182.7,127.807229 C182.1,128.208193 181.3,128.508916 180.6,128.508916 L180.6,128.508916 Z" id="Shape" fill="#404343"></path>
                    <path d="M242.3,124.599518 C241.3,124.599518 240.3,124.098313 239.7,123.095904 C238.9,121.69253 239.3,119.787952 240.8,118.986024 C259.4,107.959518 271.6,118.885783 272.1,119.386988 C273.3,120.489639 273.4,122.394217 272.3,123.597108 C271.2,124.8 269.3,124.900241 268.1,123.79759 C267.7,123.396627 256.2,118.184096 243.9,124.198554 C243.4,124.399036 242.9,124.599518 242.3,124.599518 L242.3,124.599518 Z" id="Shape" fill="#404343"></path>
                    <ellipse id="Oval" fill="#404343" cx="199.3" cy="139.936386" rx="6.1" ry="6.1146988"></ellipse>
                    <ellipse id="Oval" fill="#404343" cx="255.5" cy="139.936386" rx="6.1" ry="6.1146988"></ellipse>
                    <g id="Group" transform="translate(208.000000, 191.460241)" fill="#404343">
                        <path d="M1.09322147,11.2354797 C2.25309803,11.6116406 3.89382929,9.95252549 4.75789731,7.52974249 C5.62196533,5.10695948 5.38216513,2.83796716 4.22228857,2.4618063 C3.06241201,2.08564544 1.42168075,3.7447605 0.557612726,6.16754351 C-0.306455294,8.59032652 -0.0666550911,10.8593188 1.09322147,11.2354797 L1.09322147,11.2354797 Z" id="Oval"></path>
                        <path d="M15.5313565,7.5239609 C14.5807217,10.2435241 12.7850783,12.0565662 11.5175653,11.6536679 C10.2500523,11.2507697 10.0388001,8.73265564 10.9894349,6.01309247 C11.200687,5.50946966 11.7288174,3.89787667 12.0456957,3.39425386 C12.9963304,1.58121175 14.3694695,0.473241568 15.4257304,0.775415253 C16.3763651,1.07758894 16.6932434,2.58845737 16.4819912,4.40149948 C16.3763651,5.10657141 15.8482347,6.81888896 15.5313565,7.5239609 L15.5313565,7.5239609 Z" id="Shape"></path>
                        <path d="M25.8827126,7.32251177 C25.1433301,10.0420749 23.5589388,12.0565662 22.3970519,11.8551171 C21.235165,11.5529434 20.8126606,9.13555388 21.5520432,6.31526615 C21.6576693,5.71091878 22.1857997,3.69642755 22.3970519,3.2935293 C23.2420605,1.37976262 24.4039475,0.573966129 25.3545822,0.775415253 C26.305217,0.976864377 26.7277213,1.98410999 26.6220952,3.89787667 C26.4108431,4.50222404 25.9883387,6.61743984 25.8827126,7.32251177 L25.8827126,7.32251177 Z" id="Shape"></path>
                        <path d="M51.144521,7.23490393 C51.5670254,9.45084429 52.8345384,11.0624373 53.9964253,10.9617127 C55.1583122,10.8609882 55.6864426,8.94722148 55.2639383,6.73128112 C54.841434,4.51534076 53.573921,2.90374777 52.412034,3.00447233 C51.2501471,3.10519689 50.7220167,5.01896357 51.144521,7.23490393 L51.144521,7.23490393 Z" id="Shape"></path>
                        <path d="M45.6639673,10.6692377 C46.9314803,10.5685132 47.6708629,8.75547107 47.4596107,6.53953071 C47.3539846,6.13663246 47.1427325,4.82721315 47.0371064,4.42431491 C46.508976,2.91344648 45.5583412,1.90620086 44.5020804,2.00692542 C43.5514456,2.10764998 42.9176891,3.1148956 42.706437,4.62576403 C42.706437,5.02866228 42.812063,6.33808158 42.812063,6.94242895 C43.1289413,9.05764475 44.3964543,10.7699623 45.6639673,10.6692377 Z" id="Shape"></path>
                        <path d="M33.5001289,6.36202635 C33.9226333,8.67869127 35.1901463,10.3910088 36.4576593,10.2902843 C37.7251723,10.0888351 38.3589288,8.0743439 37.9364244,5.75767898 C37.8307983,5.25405617 37.6195462,3.94463687 37.408294,3.54173862 C36.7745375,1.93014563 35.8239028,0.822175451 34.7676419,1.02362458 C33.8170072,1.12434914 33.2888767,2.33304388 33.1832507,3.84391231 C33.2888767,4.34753512 33.5001289,5.75767898 33.5001289,6.36202635 L33.5001289,6.36202635 Z" id="Shape"></path>
                    </g>
                    <path d="M84,355.053494 C83.6,356.456867 82.1,358.261205 82.4,359.063133 C82.6,359.664578 83.3,359.965301 83.9,359.764819 L90.4,357.76 L96.6,369.989398 C96.9,370.490602 97.5,370.791325 98,370.590843 C98.5,370.390361 98.9,369.788916 98.8,369.287711 L96.1,356.055904 L109.4,351.645301 C109.9,351.444819 110.2,351.043855 110.2,350.44241 C110.2,350.241928 109.9,346.33253 107,344.22747 C105.3,343.024578 103.2,342.623614 100.6,343.22506 C99.7,342.623614 97.5,341.320482 95,341.019759 C94.2,340.919518 93.4,340.919518 92.5,341.12 C92.3,341.12 92.1,341.220241 91.9,341.320482 C91.6,340.618795 91.2,339.415904 90.5,337.611566 L77.9,348.838554 L84,355.053494 L84,355.053494 L84,355.053494 Z M89.2,351.043855 C89.4,349.44 90.8,348.337349 92.3,348.537831 C93.9,348.738313 95,350.141687 94.8,351.645301 C94.6,353.249157 93.2,354.351807 91.7,354.151325 C90.2,354.051084 89,352.647711 89.2,351.043855 Z M126.4,329.391807 C126.3,329.993253 126.6,330.494458 127.2,330.69494 C127.7,330.895422 128.4,330.594699 128.6,330.093494 L134.8,317.864096 L136,318.26506 L124.9,307.138313 L118.6,312.751807 L129,316.16 L126.4,329.391807 Z M152.9,359.664578 C153.9,358.361446 156.2,357.158554 156.2,356.156145 C156.2,355.454458 155.7,354.853012 155,354.853012 L147.5,354.151325 L146.2,339.115181 C146.1,338.513735 145.6,338.01253 145,337.912289 C144.4,337.912289 143.8,338.313253 143.7,338.914699 L140.9,353.54988 L125.5,352.447229 C124.9,352.447229 124.4,352.747952 124.2,353.349398 C124.1,353.54988 122.8,357.659759 124.9,361.067952 C126.1,362.97253 128.1,364.275663 131,364.776867 C131.7,365.779277 133.4,367.984578 135.9,369.287711 C136.7,369.688675 137.5,369.989398 138.4,370.18988 C138.6,370.18988 138.9,370.29012 139.1,370.29012 C139.1,371.693494 139,374.299759 139.1,379.111325 C139.1,379.61253 139.4,380.013494 139.8,380.213976 C139.9,380.314217 140.1,380.314217 140.2,380.314217 C151.3,381.817831 157.1,371.893976 157.3,371.493012 C157.5,371.192289 157.5,370.691084 157.4,370.390361 L152.9,359.664578 Z M146,361.569157 C145.2,363.072771 143.3,363.674217 141.8,362.872289 C140.3,362.070361 139.7,360.165783 140.5,358.662169 C141.3,357.158554 143.2,356.557108 144.7,357.359036 C146.2,358.160964 146.8,360.065542 146,361.569157 Z M270.5,334.403855 L272.2,345.22988 C271,346.132048 268.7,346.733494 268.4,347.635663 C268.2,348.237108 268.6,348.938795 269.2,349.139277 L275.9,351.444819 L273.7,365.478554 C273.6,366.08 274,366.681446 274.5,366.781687 C275.1,366.982169 275.7,366.681446 275.9,366.08 L281.7,353.349398 L295.5,357.76 C295.9,357.860241 296.2,357.76 296.5,357.559518 L270.6,333.501687 C270.5,333.902651 270.4,334.203373 270.5,334.403855 Z M226.8,371.29253 L212.3,363.774458 L217.8,349.039036 C218,348.43759 217.8,347.735904 217.2,347.33494 C216.6,347.034217 215.9,347.134458 215.5,347.735904 L206.1,360.666988 L198.9,357.158554 C198.2,356.857831 197.4,357.058313 197.1,357.659759 C196.6,358.561928 198,360.86747 198.2,362.671807 L188.2,369.989398 C187.9,370.18988 187.7,370.590843 187.6,370.991807 C187.6,371.493012 187.3,383.622169 198.2,388.433735 C198.4,388.533976 198.5,388.533976 198.7,388.533976 C199.2,388.533976 199.7,388.333494 199.9,387.93253 C202.6,383.622169 204,381.216386 204.7,379.913253 C204.9,380.013494 205.1,380.113735 205.4,380.213976 C206.3,380.514699 207.3,380.715181 208.2,380.815422 C211.2,381.015904 213.9,379.913253 215.1,379.412048 C217.9,380.514699 220.5,380.514699 222.6,379.412048 C226.3,377.50747 227.4,372.996627 227.4,372.796145 C227.6,372.194699 227.4,371.593253 226.8,371.29253 Z M206.5,371.693494 C204.7,371.593253 203.3,369.989398 203.4,368.18506 C203.5,366.380723 205.1,364.977349 206.9,365.07759 C208.7,365.177831 210.1,366.781687 210,368.586024 C209.9,370.390361 208.3,371.793735 206.5,371.693494 Z M150.2,283.280964 C148.7,283.080482 146.7,281.87759 145.9,282.278554 C145.3,282.579277 145.1,283.280964 145.4,283.88241 L148.4,290.097349 L137.2,298.317108 C136.7,298.617831 136.6,299.319518 136.9,299.820723 C137.2,300.321928 137.8,300.622651 138.4,300.321928 L151.2,295.510361 L157.7,308.140723 C157.9,308.641928 158.5,308.84241 159,308.742169 C159.2,308.742169 163.1,307.739759 164.7,304.532048 C165.7,302.62747 165.7,300.422169 164.7,297.916145 C165.2,296.913735 166.1,294.507952 166,291.901687 C166,291.099759 165.8,290.297831 165.5,289.495904 C165.4,289.295422 165.3,289.09494 165.2,288.894458 C165.5,288.693976 166.3,288.192771 167.2,287.591325 L155.7,276.063614 C153.2,279.471807 150.2,283.180723 150.2,283.280964 Z M155.1,287.791807 C156.7,287.691566 158,288.894458 158.1,290.498313 C158.2,292.102169 157,293.405301 155.4,293.505542 C153.8,293.605783 152.5,292.402892 152.4,290.799036 C152.3,289.195181 153.5,287.892048 155.1,287.791807 Z M178.2,337.912289 C179.7,338.112771 181.7,339.415904 182.6,338.914699 C183.2,338.613976 183.4,337.912289 183.1,337.310843 L180.1,330.995663 L191.6,322.775904 C192.1,322.475181 192.2,321.773494 192,321.272289 C191.7,320.771084 191.1,320.470361 190.5,320.670843 L177.5,325.382169 L171,312.551325 C170.8,312.05012 170.2,311.849639 169.7,311.94988 C169.5,311.94988 165.6,312.852048 163.8,316.16 C162.8,318.064578 162.8,320.26988 163.7,322.775904 C163.2,323.778313 162.3,326.184096 162.4,328.890602 C162.4,329.492048 162.5,330.193735 162.7,330.895422 L174.4,342.623614 C176.3,340.318072 178.2,338.01253 178.2,337.912289 C178.2,338.01253 178.2,337.912289 178.2,337.912289 Z M173.3,333.301205 C171.7,333.401446 170.3,332.098313 170.3,330.494458 C170.2,328.890602 171.5,327.487229 173.1,327.487229 C174.7,327.386988 176.1,328.69012 176.1,330.293976 C176.2,331.897831 174.9,333.200964 173.3,333.301205 Z M310.8,370.891566 C306.2,372.896386 298,377.407229 298.7,385.025542 C298.7,385.125783 312.4,386.629398 314.2,386.729639 C316.9,385.125783 319.6,383.421687 322.3,381.617349 L310.8,370.891566 Z M261.7,333.401446 C261.8,333.401446 261,328.389398 260.3,324.079036 L247.5,312.150361 C247.2,312.05012 247,311.94988 246.8,311.849639 L247.5,328.289157 C250.8,331.79759 256.1,335.506506 261.7,333.401446 Z M282.7,398.658313 L275.5,388.533976 C276.3,386.93012 278.3,385.226024 278.1,384.123373 C278,383.421687 277.3,382.920482 276.5,383.020723 L268.5,384.123373 L263.6,368.786506 C263.4,368.18506 262.7,367.784096 262.1,367.884337 C261.4,367.984578 260.9,368.586024 261,369.287711 L261.6,385.125783 L245.4,387.732048 C244.8,387.832289 244.3,388.333494 244.3,388.93494 C244.3,389.135422 243.9,393.746506 246.8,396.753735 C248.5,398.457831 250.9,399.259759 254,399.159518 C255,400.061687 257.2,401.966265 260.1,402.768193 C261,402.968675 262,403.169157 263,403.169157 C263.3,403.169157 263.5,403.169157 263.7,403.068916 C263.9,404.071325 264.2,405.675181 264.8,408.181205 L265,408.181205 C271.5,406.276627 277.8,404.171566 284,401.665542 C283.7,401.164337 283.3,400.562892 282.9,399.861205 C282.6,399.560482 282.9,399.059277 282.7,398.658313 Z M268.7,392.142651 C268.2,393.946988 266.4,394.949398 264.6,394.448193 C262.8,393.946988 261.8,392.142651 262.3,390.338313 C262.8,388.533976 264.6,387.531566 266.4,388.032771 C268.2,388.533976 269.2,390.438554 268.7,392.142651 Z M178.4,400.963855 C178.1,400.562892 169.7,391.240482 158.1,395.350361 C157.9,395.450602 157.8,395.450602 157.7,395.550843 C157.3,395.851566 157.1,396.352771 157.2,396.853976 C158.2,401.966265 158.9,404.773012 159.2,406.276627 C159,406.376867 158.7,406.477108 158.5,406.577349 C157.6,406.978313 156.7,407.479518 156,408.181205 C155.8,408.381687 155.3,408.782651 154.6,409.283855 C161.7,411.188434 169,412.692048 176.5,413.794699 L178.7,402.166747 C178.8,401.765783 178.6,401.364819 178.4,400.963855 Z M116.2,381.918072 C115.6,381.617349 114.9,381.71759 114.6,382.319036 L108.3,390.939759 C109.9,391.841928 111.5,392.643855 113.1,393.445783 L116.9,383.521928 C117,382.920482 116.8,382.218795 116.2,381.918072 Z M241.5,412.491566 L230.5,408.68241 C230.2,407.078554 230.8,404.57253 230.1,403.870843 C229.6,403.369639 228.8,403.369639 228.3,403.870843 L222.8,408.983133 L210.7,399.961446 C210.2,399.560482 209.5,399.660723 209,400.061687 C208.6,400.562892 208.5,401.264578 208.9,401.765783 L218,413.493976 L215.5,415.899759 C224.6,415.599036 233.5,414.596627 242.2,413.193253 C242.1,412.89253 241.9,412.591807 241.5,412.491566 Z" id="Shape" fill="#4DDBC4"></path>
                    <path d="M296.9,357.359036 C297,357.258795 271.1,333.100723 270.8,333.401446 C270.7,333.501687 270.7,333.601928 270.6,333.601928 L296.5,357.659759 C296.7,357.659759 296.8,357.559518 296.9,357.359036 L296.9,357.359036 Z" id="Shape" fill="#5AC3B2"></path>
                    <path d="M172.8,283.782169 C172.8,283.681928 162.4,265.738795 159.6,271.352289 C159.5,271.45253 157.8,273.758072 155.8,276.264096 L167.3,287.791807 C169.6,286.288193 172.8,284.082892 172.8,283.782169 L172.8,283.782169 Z" id="Shape" fill="#5AC3B2"></path>
                    <path d="M415.2,208.100241 C415.2,93.1238554 322.2,0 207.6,0 C93,0 0,93.1238554 0,208.100241 C0,264.335422 22.3,315.358072 58.4,352.848193 L118.1,299.820723 C117,297.916145 116.3,295.710843 116.3,293.405301 C116.3,290.097349 117.6,286.98988 120,284.584096 L140.5,264.235181 C143.7,261.127711 148.1,260.02506 152.1,261.02747 L151.9,233.862169 C150.7,227.947952 146.7,226.043373 141.8,226.043373 C141.8,217.923855 139.7,215.117108 132.3,215.117108 C132.3,181.335904 105.7,174.619759 105.7,131.917108 C105.7,93.8255422 127.3,86.106988 127.3,86.106988 C127.3,52.0250602 160.3,25.5614458 213.6,25.5614458 C262.3,25.5614458 281.7,47.7146988 281.7,47.7146988 L277.5,50.2207229 C277.4,50.2207229 277.4,50.3209639 277.3,50.3209639 C270.7,54.3306024 270.7,64.0539759 277.3,68.0636145 C286.2,73.5768675 296.1,83.300241 296.1,99.0380723 C296.1,105.353253 294.7,110.966747 293.5,114.575422 C296.2,124.198554 297.1,134.423133 296.1,144.948434 L289.7,208.701687 C287.3,236.969639 271.5,255.915181 247.4,259.423614 C245.9,259.624096 244.8,260.826988 244.7,262.330602 L246.1,297.41494 C246.5,297.615422 246.8,297.815904 247.2,298.116627 L330.7,375.602892 C381.9,337.812048 415.2,276.865542 415.2,208.100241 L415.2,208.100241 Z" id="Shape" fill="#4DDBC4"></path>
                    <path d="M246.1,297.515181 L244.7,262.430843 C244.9,260.927229 246,259.724337 247.4,259.523855 C271.5,256.015422 287.3,237.06988 289.7,208.801928 L296.1,145.048675 C297.1,134.523373 296.2,124.298795 293.5,114.675663 C294.7,111.066988 296.1,105.453494 296.1,99.1383133 C296.1,83.4004819 286.1,73.6771084 277.3,68.1638554 C270.7,64.0539759 270.7,54.4308434 277.3,50.4212048 C277.4,50.4212048 277.4,50.3209639 277.5,50.3209639 L281.7,47.8149398 C281.7,47.8149398 262.2,25.6616867 213.6,25.6616867 C160.3,25.6616867 127.3,52.1253012 127.3,86.2072289 C127.3,86.2072289 105.7,93.9257831 105.7,132.017349 C105.7,174.72 132.3,181.436145 132.3,215.217349 C139.7,215.217349 141.8,218.024096 141.8,226.143614 C146.7,226.143614 150.7,228.048193 151.9,233.96241 L152.1,261.127711 C148.1,260.125301 143.6,261.227952 140.5,264.335422 L120,284.584096 C117.6,286.889639 116.3,290.097349 116.3,293.405301 C116.3,295.710843 116.9,297.916145 118.1,299.820723 L58.4,352.848193 C60.7,355.253976 63.1,357.559518 65.5,359.86506 L124.8,307.138313 L172.4,354.853012 C174.7,357.158554 177.9,358.461687 181.2,358.461687 C184.5,358.461687 187.6,357.158554 190,354.853012 L212.5,332.298795 L239.9,360.466506 C240.9,361.468916 242.2,361.97012 243.5,361.97012 C244.2,361.97012 244.8,361.86988 245.5,361.569157 C247.4,360.767229 248.6,358.862651 248.5,356.75759 L246.7,311.348434 L322.3,381.517108 L322.3,381.517108 C325.1,379.61253 327.9,377.707952 330.7,375.602892 C330.6,375.703133 246.5,297.715663 246.1,297.515181 L246.1,297.515181 Z M182.9,347.735904 C182.3,348.337349 181.6,348.43759 181.2,348.43759 C180.8,348.43759 180.1,348.337349 179.5,347.735904 L127,295.109398 C126.4,294.507952 126.3,293.806265 126.3,293.405301 C126.3,293.004337 126.4,292.302651 127,291.701205 L147.5,271.352289 C148,270.851084 148.6,270.650602 149.2,270.650602 C149.8,270.650602 150.4,270.851084 150.9,271.352289 L205,325.582651 L182.9,347.735904 L182.9,347.735904 Z M234.7,262.02988 L234.7,262.531084 L238,344.127229 L162.3,266.24 L161.8,210.205301 L161.8,209.804337 C165.8,189.655904 156.4,185.646265 156.4,174.419277 C156.4,161.788916 164.2,158.881928 164.2,143.144096 C164.2,128.308434 150.3,126.504096 150.3,112.871325 C150.3,101.143133 161.6,86.5079518 178.2,86.5079518 C196.9,86.5079518 212,96.2313253 227.1,96.2313253 C251.3,96.2313253 260.2,89.6154217 264.3,85.3050602 C265.9,86.8086747 267.5,88.3122892 269,89.9161446 C282.2,104.451084 288.4,123.697349 286.5,144.146506 L280.1,207.899759 C278.1,231.255904 265.5,246.793253 246.3,249.6 C239.8,250.502169 235,255.714699 234.7,262.02988 L234.7,262.02988 Z" id="Shape" fill="#404343"></path>
                </g>
            </g>
        </g>
    </g>
</svg>