<?xml version="1.0" encoding="UTF-8" standalone="no"?>
<svg width="260px" height="260px" viewBox="0 0 260 260" version="1.1" xmlns="http://www.w3.org/2000/svg" xmlns:xlink="http://www.w3.org/1999/xlink" xmlns:sketch="http://www.bohemiancoding.com/sketch/ns">
    <!-- Generator: Sketch Beta 3.4 (15009) - http://www.bohemiancoding.com/sketch -->
    <title>design_icon_experience</title>
    <desc>Created with Sketch Beta.</desc>
    <defs></defs>
    <g id="Page-1" stroke="none" stroke-width="1" fill="none" fill-rule="evenodd" sketch:type="MSPage">
        <g id="v" sketch:type="MSArtboardGroup" transform="translate(-67.000000, -383.000000)">
            <g id="Fill-33-+-Fill-35-+-Shape" sketch:type="MSLayerGroup" transform="translate(80.000000, 400.000000)">
                <path d="M116.2774,196.4133 C116.2774,215.6833 97.9884,229.7653 79.3844,224.7453 C32.4824,212.0883 0.7704,164.2533 0.7704,113.1213 C0.7704,61.5513 30.9224,13.3363 79.7314,1.1803 C98.3414,-3.4547 116.2774,10.9913 116.2774,30.1703 L116.2774,117.9503 L116.2774,196.4133 Z" id="Fill-33" fill="#FBB36D" sketch:type="MSShapeGroup"></path>
                <path d="M116.644,179.8346 C118.982,179.8346 120.904,181.5616 121.301,183.8656 C122.144,188.7506 124.493,193.1206 127.852,196.4796 C132.112,200.7396 137.997,203.3746 144.497,203.3746 C157.498,203.3746 168.037,192.8356 168.037,179.8346 C183.509,179.8346 196.052,167.2916 196.052,151.8196 C196.052,147.8406 195.218,144.0586 193.722,140.6306 C203.402,134.6816 209.858,123.9976 209.858,111.8026 C209.858,100.2556 204.067,90.0656 195.235,83.9646 C195.765,81.8106 196.052,79.5596 196.052,77.2416 C196.052,61.7696 183.509,49.2266 168.037,49.2266 L168.037,49.2266 C168.037,38.7566 161.196,29.3296 151.092,26.5826 C142.732,24.3096 134.799,26.5286 129.173,31.3576 C125.081,34.8706 122.21,39.7636 121.281,45.3156 C120.908,47.5486 119.05,49.2266 116.785,49.2266 L116.503,49.2266 C114.238,49.2266 112.38,47.5486 112.007,45.3156 C111.079,39.7636 108.207,34.8706 104.116,31.3576 C98.489,26.5286 90.556,24.3096 82.196,26.5826 C72.092,29.3296 65.251,38.7566 65.251,49.2266 L65.251,49.2266 C49.779,49.2266 37.236,61.7696 37.236,77.2416 C37.236,79.5596 37.523,81.8106 38.054,83.9646 C29.221,90.0656 23.43,100.2556 23.43,111.8026 C23.43,123.9976 29.887,134.6816 39.566,140.6306 C38.071,144.0586 37.236,147.8406 37.236,151.8196 C37.236,167.2916 49.779,179.8346 65.251,179.8346 C65.251,192.8356 75.79,203.3746 88.791,203.3746 C95.291,203.3746 101.176,200.7396 105.436,196.4796 C108.795,193.1206 111.144,188.7506 111.987,183.8656 C112.384,181.5616 114.306,179.8346 116.644,179.8346" id="Fill-35" fill="#F16352" sketch:type="MSShapeGroup"></path>
                <path d="M42.1498058,136.350349 C33.6874219,131.132063 28.4298,121.923502 28.4298,111.8031 C28.4298,102.215178 33.1450903,93.4313181 40.8953918,88.0781437 C42.6043024,86.8977901 43.4055804,84.7838902 42.9084637,82.7673375 C42.4634487,80.9621354 42.2358,79.1137516 42.2358,77.2421 C42.2358,66.0657082 50.2016378,56.7499929 60.765088,54.6630178 C61.9301909,61.0518103 65.0373486,66.6313623 69.6815003,70.6394371 C71.772029,72.4436407 74.9293334,72.2115284 76.7335371,70.1209997 C78.5377407,68.030471 78.3056284,64.8731666 76.2150997,63.0689629 C72.4911882,59.8550895 70.286916,54.8938717 70.2517278,49.0386827 C70.3522817,38.8863054 78.6138942,30.6871 88.7908,30.6871 C93.2857039,30.6871 97.5200564,32.2857068 100.859037,35.1519758 C102.954337,36.9506364 106.111015,36.7101629 107.909676,34.6148632 C109.708336,32.5195635 109.467863,29.3628849 107.372563,27.5642242 C102.237051,23.1557648 95.698109,20.6871 88.7908,20.6871 C73.2114364,20.6871 60.5476956,33.1697235 60.2559446,48.6787242 C60.3408655,46.6943948 61.5823314,45.0096398 63.3233739,44.2814278 C45.9868161,45.2794616 32.2358,59.6548717 32.2358,77.2421 C32.2358,79.9261642 32.5623913,82.5779081 33.1991363,85.1608625 L38.0538,83.9641 L35.2122082,79.8500563 C24.7874062,87.0505224 18.4298,98.8937632 18.4298,111.8031 C18.4298,125.425364 25.5113087,137.833103 36.8891334,144.854787 C36.8636167,144.838185 36.8389928,144.822066 36.8152677,144.806439 C34.7846386,143.468861 34.0473645,140.904768 34.9373258,138.736808 C33.1644773,142.839362 32.2358,147.270655 32.2358,151.8191 C32.2358,170.053206 47.0170585,184.8341 65.2508,184.8341 L60.2508,179.8341 C60.2508,195.596524 73.0283763,208.3741 88.7908,208.3741 C91.5522237,208.3741 93.7908,206.135524 93.7908,203.3741 C93.7908,200.612676 91.5522237,198.3741 88.7908,198.3741 C78.5512237,198.3741 70.2508,190.073676 70.2508,179.8341 C70.2508,177.072676 68.0122237,174.8341 65.2508,174.8341 C52.5398508,174.8341 42.2358,164.530303 42.2358,151.8191 C42.2358,150.510571 42.3455224,149.217772 42.5609969,147.949903 C43.1937516,148.249741 43.8450882,148.544882 44.5136769,148.833196 C50.3211391,151.33754 56.2622444,152.8529 62.0967,152.8529 C64.8581237,152.8529 67.0967,150.614324 67.0967,147.8529 C67.0967,145.091476 64.8581237,142.8529 62.0967,142.8529 C57.8100306,142.8529 53.1331984,141.66001 48.4734731,139.650604 C46.8085582,138.932645 45.2700054,138.162841 43.903239,137.397179 C43.4324027,137.133416 43.0198755,136.891173 42.6710914,136.677528 C42.4770196,136.558651 42.3569227,136.48223 42.3161323,136.455361 C42.2611315,136.419132 42.2056785,136.38413 42.1498058,136.350349 Z M169.437179,54.1614037 C169.700674,54.2042993 169.971083,54.2266 170.2467,54.2266 C182.957276,54.2266 193.2617,64.5310237 193.2617,77.2416 C193.2617,79.1135385 193.033977,80.9629359 192.589036,82.7678375 C192.09192,84.7843902 192.893198,86.8982901 194.602108,88.0786437 C202.352648,93.4319827 207.0677,102.214936 207.0677,111.8026 C207.0677,121.937675 201.795855,131.157395 193.313546,136.370874 C191.190396,137.675824 190.352353,140.345028 191.348584,142.629362 C192.604848,145.509946 193.2617,148.616969 193.2617,151.8196 C193.2617,162.850432 185.500842,172.069051 175.141637,174.312945 C173.51989,161.25376 162.382233,151.1462 148.8837,151.1462 C146.122276,151.1462 143.8837,153.384776 143.8837,156.1462 C143.8837,158.907624 146.122276,161.1462 148.8837,161.1462 C157.974895,161.1462 165.3447,168.516242 165.3447,177.6072 C165.3447,177.913945 165.372322,178.214238 165.425215,178.505728 C165.308851,178.928878 165.2467,179.374481 165.2467,179.8346 C165.2467,190.074176 156.946276,198.3746 146.7067,198.3746 C141.718675,198.3746 137.055126,196.401958 133.597234,192.944066 C131.644612,190.991445 128.478788,190.991445 126.526166,192.944066 C124.573545,194.896688 124.573545,198.062512 126.526166,200.015134 C131.840774,205.329742 139.039164,208.3746 146.7067,208.3746 C162.469124,208.3746 175.2467,195.597024 175.2467,179.8346 L170.2467,184.8346 C188.480124,184.8346 203.2617,170.053024 203.2617,151.8196 C203.2617,147.231926 202.317358,142.765026 200.514816,138.631838 L195.9317,140.6306 L198.549854,144.890326 C209.961936,137.876123 217.0677,125.449134 217.0677,111.8026 C217.0677,98.8934372 210.710267,87.0511421 200.285292,79.8505563 L197.4437,83.9646 L202.298364,85.1613625 C202.935056,82.5786229 203.2617,79.9258578 203.2617,77.2416 C203.2617,59.0081763 188.480124,44.2266 170.2467,44.2266 L170.952862,44.9327617 C171.706365,45.3703081 172.335092,45.9990348 172.772638,46.7525383 L175.2467,49.2266 C175.2467,33.4641763 162.469124,20.6866 146.7067,20.6866 C143.945276,20.6866 141.7067,22.9251763 141.7067,25.6866 C141.7067,28.4480237 143.945276,30.6866 146.7067,30.6866 C155.309771,30.6866 162.543995,36.5458672 164.636617,44.4916477 C152.875347,45.932387 142.896863,53.9645926 138.997687,65.2085006 C138.092934,67.8175011 139.4745,70.6659608 142.083501,71.5707134 C144.692501,72.475466 147.540961,71.0939 148.445713,68.4848994 C151.374398,60.0395627 159.359866,54.2597 168.4457,54.2597 C168.785156,54.2597 169.116712,54.2258722 169.437179,54.1614037 Z M60.2515283,49.0200562 C60.251043,49.0886802 60.2508,49.1573617 60.2508,49.2261 L60.2529006,49.2239994 C60.2522367,49.1560783 60.2517791,49.088097 60.2515283,49.0200562 Z M156.5085,112.338383 C160.885466,109.681799 166.0102,108.164 171.4499,108.164 C174.211324,108.164 176.4499,110.402576 176.4499,113.164 C176.4499,115.925424 174.211324,118.164 171.4499,118.164 C162.360745,118.164 154.61354,124.658741 152.957019,133.480733 C152.447408,136.194726 149.83416,137.98173 147.120167,137.472119 C144.406174,136.962508 142.61917,134.34926 143.128781,131.635267 C144.022524,126.875538 146.069532,122.559873 148.953912,118.964909 C145.760287,114.689028 143.924181,109.622168 143.606255,104.346573 C143.440142,101.59015 145.540004,99.2209667 148.296427,99.0548546 C151.05285,98.8887425 153.422033,100.988604 153.588145,103.745027 C153.773523,106.82113 154.770691,109.77578 156.5085,112.338383 Z M99.9505441,70.7291027 C102.735169,79.8002419 97.6392693,89.411378 88.5689828,92.1959792 C85.9291607,93.0064114 84.4461471,95.8033951 85.2565792,98.4432172 C86.0670114,101.083039 88.8639951,102.566053 91.5038172,101.755621 C105.853747,97.3501557 113.915564,82.1451421 109.510256,67.7944973 C108.699887,65.1546557 105.902939,63.6715752 103.263097,64.4819441 C100.623256,65.292313 99.1401752,68.0892612 99.9505441,70.7291027 Z M74.2083457,122.623323 C84.592719,126.573366 91.6,136.554844 91.6,147.852 C91.6,153.310182 89.9811319,158.51429 86.9941875,162.934517 C85.4480758,165.222529 86.049505,168.330701 88.3375172,169.876813 C90.6255293,171.422924 93.7337009,170.821495 95.2798125,168.533483 C99.3755119,162.472465 101.6,155.321496 101.6,147.852 C101.6,132.369669 91.9970683,118.690831 77.7636543,113.276677 C75.1826494,112.294906 72.2944486,113.591341 71.3126773,116.172346 C70.3309059,118.753351 71.6273409,121.641551 74.2083457,122.623323 Z" id="Shape" fill="#404343" sketch:type="MSShapeGroup"></path>
            </g>
        </g>
    </g>
</svg>